# xmcd
# 
# Track frame offsets:
#     150
#     18720
#     33437
#     51491
#     68875
#     84383
#     101191
#     114000
#     128210
#     142910
#     160862
#     181249
#     198136
#     227566
# 
# Disc length: 3572
# 
# Revision: 1
# Processed by: cddbd v1.5.2PL0 Copyright (c) Steve Scherf et al.
# Submitted via: BonkEnc v1.0.15
# 
DISCID=b50df20e
DTITLE=Nolwenn Leroy - Filles de l'eau
DYEAR=2012
DGENRE=Country
TTITLE0=Davy Jones
TTITLE1=Juste pour me souvenir
TTITLE2=Ophelia
TTITLE3=Sixième continent
TTITLE4=Homeland
TTITLE5=J'ai volé le lit de la mer
TTITLE6=A la vie à la mort
TTITLE7=Aux filles de l'eau
TTITLE8=Limitless
TTITLE9=Ahès
TTITLE10=Sur mes lèvres
TTITLE11=Tout a une fin
TTITLE12=D'émeraude
TTITLE13=Freedb
EXTD=
EXTT0=
EXTT1=
EXTT2=
EXTT3=
EXTT4=
EXTT5=
EXTT6=
EXTT7=
EXTT8=
EXTT9=
EXTT10=
EXTT11=
EXTT12=
EXTT13=
PLAYORDER=
